<?xml version="1.0" encoding="UTF-8"?>
<svg id="Layer_1" data-name="Layer 1" xmlns="http://www.w3.org/2000/svg" viewBox="0 0 820 820">
  <path d="m410,820c-55.34,0-109.03-10.84-159.6-32.23-48.83-20.65-92.67-50.21-130.31-87.85-37.64-37.64-67.2-81.49-87.85-130.31C10.84,519.03,0,465.34,0,410s10.84-109.03,32.23-159.6c20.65-48.83,50.21-92.67,87.85-130.31,37.64-37.64,81.49-67.2,130.31-87.85C300.97,10.84,354.66,0,410,0s109.03,10.84,159.6,32.23c48.83,20.65,92.67,50.21,130.31,87.85,37.64,37.64,67.2,81.49,87.85,130.31,21.39,50.57,32.23,104.26,32.23,159.6s-10.84,109.03-32.23,159.6c-20.65,48.83-50.21,92.67-87.85,130.31-37.64,37.64-81.49,67.2-130.31,87.85-50.57,21.39-104.26,32.23-159.6,32.23Zm0-758.97c-192.42,0-348.97,156.55-348.97,348.97s156.55,348.97,348.97,348.97,348.97-156.55,348.97-348.97S602.42,61.03,410,61.03Zm0,626.15c-16.85,0-30.51-13.66-30.51-30.51v-26.41h-13.76c-31.8,0-61.7-12.38-84.19-34.87-22.49-22.49-34.87-52.39-34.87-84.19,0-16.85,13.66-30.51,30.51-30.51s30.51,13.66,30.51,30.51c0,32,26.03,58.03,58.03,58.03h82.22c35.49,0,64.36-28.87,64.36-64.36s-28.87-64.36-64.36-64.36h-75.9c-33.49,0-64.98-13.04-88.66-36.73-23.68-23.68-36.73-55.17-36.73-88.66s13.04-64.98,36.73-88.66c23.68-23.68,55.17-36.72,88.66-36.72h7.43v-26.41c0-16.85,13.66-30.51,30.51-30.51s30.51,13.66,30.51,30.51v26.41h13.76c31.8,0,61.7,12.38,84.19,34.87,22.49,22.49,34.87,52.39,34.87,84.19,0,16.85-13.66,30.51-30.51,30.51s-30.51-13.66-30.51-30.51c0-32-26.03-58.03-58.03-58.03h-82.22c-35.49,0-64.36,28.87-64.36,64.36s28.87,64.36,64.36,64.36h75.9c33.49,0,64.98,13.04,88.66,36.72,23.68,23.68,36.73,55.17,36.73,88.66s-13.04,64.98-36.73,88.66c-23.68,23.68-55.17,36.73-88.66,36.73h-7.43v26.41c0,16.85-13.66,30.51-30.51,30.51Z"/>
</svg>